PathFileType	4	(X/Y/Z)	28_1_39_p0_0-292_filt_butterworth.trc
DataRate	CameraRate	NumFrames	NumMarkers	Units	OrigDataRate	OrigDataStartFrame	OrigNumFrames
60.0	60.0	5	27	m	60.0	0	292
Frame#	Time	RHip			RKnee			RAnkle			RBigToe			RSmallToe			RHeel			LHip			LKnee			LAnkle			LBigToe			LSmallToe			LHeel			Neck			Head			Nose			RShoulder			RElbow			RWrist			RThumb			RIndex			RPinky			LShoulder			LElbow			LWrist			LThumb			LIndex			LPinky			
		X1	Y1	Z1	X2	Y2	Z2	X3	Y3	Z3	X4	Y4	Z4	X5	Y5	Z5	X6	Y6	Z6	X7	Y7	Z7	X8	Y8	Z8	X9	Y9	Z9	X10	Y10	Z10	X11	Y11	Z11	X12	Y12	Z12	X13	Y13	Z13	X14	Y14	Z14	X15	Y15	Z15	X16	Y16	Z16	X17	Y17	Z17	X18	Y18	Z18	X19	Y19	Z19	X20	Y20	Z20	X21	Y21	Z21	X22	Y22	Z22	X23	Y23	Z23	X24	Y24	Z24	X25	Y25	Z25	X26	Y26	Z26	X27	Y27	Z27	
0	0.0	0.17607867394157253	0.6669190087314275	1.007707006789887	0.1897340568832841	0.8555894819606524	1.3968025707551124	0.2019248493657657	1.1070435420036995	1.7532896024489832	0.18475894986270033	0.9304417397593351	1.8214308025403039	0.23571020862292935	0.9631742613658096	1.8177744579692128	0.18770326965970974	1.1910725625486736	1.7850249668607585	-0.005730150137758142	0.6761065989485664	1.014020624286474	-0.014282566545807595	0.9012539153715404	1.3931466062653282	0.006823233810889468	1.055856407880562	1.7607146906670303	0.027896443655915697	0.8921268308159501	1.815027938800366	-0.024883186029601136	0.9123008221820627	1.8057519212273252	0.010665811790857948	1.1033070379763281	1.787903688840627	0.06444893817983861	0.4523575411216613	0.5160417118986996	0.04765757005997215	0.3292999805554317	0.3161301201699366	0.04991807555905952	0.31520831076889133	0.431469883711717	0.20655361543748935	0.49274254873088763	0.5874800394383894	0.22861684614782257	0.5618133624276416	0.8312403688999721	0.12320841835666696	0.46902118274514326	1.026226688516501	0.0272738926257738	0.4825638781732203	1.0943287356745246	0.033382494024098534	0.4997956856174263	1.117984576221775	0.06917176218554134	0.5534935602335176	1.1239289530802852	-0.07966944933493036	0.510973357366007	0.5959675806587561	-0.08908999095660956	0.5646946866161378	0.8285872893599667	0.0072288476038712395	0.4627512135072555	1.0219985075912725	0.09523472575040716	0.4619610713547128	1.079217609033404	0.09643272016045787	0.4824487402690137	1.1100425982442133	0.04980635595902174	0.47756446281984616	1.1172360665872323
1	0.0166666666666666	0.1744100225489923	0.666503916732437	1.0096610258423315	0.19027240969937498	0.854353556927322	1.393650308572832	0.2011513265480055	1.095270795353763	1.7511064986596505	0.18543080559946604	0.9324524794399895	1.824446037148601	0.2375712291137837	0.9523232028966214	1.81538654587542	0.18858457596531292	1.1928409599756007	1.789876885803984	-0.008272418800758189	0.6850864951911491	1.0159282836035237	-0.014248261529329034	0.901176798578356	1.3935015200083165	0.006803396023841538	1.0558382630958434	1.760644141942985	0.026621829737545642	0.8919699596866754	1.8150001346327056	-0.02501719386274834	0.912490557339933	1.8058528927370245	0.011912198051574363	1.1039129581298186	1.787833771932271	0.0634451698361806	0.4648926905017434	0.5156306231786117	0.049085157089629176	0.3331951059259263	0.31519029701306395	0.047652776593168834	0.3225640200407543	0.431548684850248	0.2066288702047921	0.4925692107040923	0.5875756790069058	0.22862529557195901	0.5619535509794651	0.8312437616143151	0.12325996933905495	0.46907427698926757	1.0262532861961264	0.029698419359751836	0.48554092100353585	1.0959328087151714	0.0393521802395532	0.4994900549319586	1.1183587666365602	0.06920016262698322	0.5533012512232849	1.1235371530086868	-0.07972102571119113	0.5109583207161882	0.5960653032472585	-0.09099910331116065	0.5631101953728108	0.8250988337583665	0.007713771032378152	0.46395374177412985	1.0254531085061034	0.09793070211460939	0.4636985156757678	1.0814940271018323	0.09648517588432408	0.48234014265087427	1.1100318013870012	0.04966710880402408	0.4772369733310518	1.1172566722557122
2	0.0333333333333333	0.17282135521650605	0.6662754131922626	1.0105931127508607	0.19056839114316576	0.8536542854749458	1.3918759264807472	0.20068726914217447	1.0881997726797457	1.749786442019432	0.18584953899378928	0.9337060631027716	1.8262414463575074	0.2387361569886023	0.9458822421613626	1.8139459976183996	0.18883292316979555	1.1933224758746312	1.7911451171049588	-0.009883158309592117	0.6906587418371986	1.0175017940798108	-0.014238049995719766	0.9011615046233621	1.3937056674980068	0.006806890782306009	1.0558356771943795	1.7606651105659865	0.026099697249422217	0.891910385347384	1.8149777275020553	-0.0250857177121599	0.9125621328270287	1.8059086159346909	0.012529738490490248	1.1042378519516394	1.7879032646539703	0.06329744420223261	0.47397415533873577	0.5150261035894306	0.050416527256447415	0.33700896213372	0.31468698779728294	0.04643087709189564	0.3271479887409854	0.43191448886582057	0.20671483046513806	0.4923357922433072	0.5876750712176169	0.2286323586698439	0.5620682381595724	0.8312202741099497	0.12326412887708632	0.4690967015491594	1.0262501006082787	0.03211419939980263	0.48819507563496334	1.0970843094942087	0.043397193395151815	0.4995094217710394	1.1187400439657078	0.06914723388378805	0.5531935973328821	1.1226075679213143	-0.07971593817897032	0.5110568239520701	0.5960221150040895	-0.09142459715624777	0.5624196124821836	0.823561069000055	0.00811336964230876	0.4650492775975176	1.028051630480521	0.09957726570394457	0.46473082451239883	1.0828568634281561	0.09651828644746611	0.4822777254184163	1.1099994604592205	0.04949954436451379	0.47820654104634	1.1172575487247747
3	0.05	0.1719318750964527	0.6671787768006545	1.0103358719246092	0.19055597787679365	0.8536643695562126	1.3919223720814817	0.200556373727216	1.0861975675839222	1.7493967389771439	0.18598078729960002	0.9341494895800904	1.8267256473471845	0.23912170044512643	0.9441920286500708	1.8135273022418603	0.1884756167023106	1.1925739544154375	1.789028215881053	-0.010516954464023868	0.6926397718412413	1.0190213333629325	-0.014252401673846822	0.9011993255923677	1.3937595544315653	0.006869546482270767	1.0558316042077105	1.7610276092139345	0.026567640669349156	0.892024987824102	1.8149672641605976	-0.02507460868198585	0.9125514408839107	1.8059209088367807	0.012283269733517116	1.1041753691521319	1.7883457859193468	0.06389608475193241	0.4783441666249632	0.5144150734186592	0.051362122226488824	0.33990406752730457	0.31483280825488147	0.04660126932330649	0.32883922296199825	0.4327068352482283	0.2067207285875864	0.49240722480490656	0.5877045732643001	0.22864279035184193	0.5621359233805623	0.8311650611735084	0.12322209285114147	0.46910649385598496	1.026216503517827	0.03453503519107648	0.4905041764230761	1.0980300036777397	0.0452205698126639	0.5006665306529462	1.119103526060998	0.06902578903509267	0.5532137337241605	1.1212977117260712	-0.07964684099300652	0.5111728116567518	0.5956104709449213	-0.09046627540095344	0.5626107855265453	0.823967835334114	0.008339954070130776	0.46575766818601005	1.0293053092146824	0.10003028888699883	0.46493841610008285	1.0832127994669363	0.09654214896099719	0.4822328992414947	1.1099606065054344	0.04932978432250547	0.4811852651346606	1.1172234435868895
4	0.0666666666666666	0.17233228954042124	0.6703583687249083	1.009930823044501	0.1903238031338267	0.8542209798779783	1.3933704344632445	0.20058788059396498	1.0866667587631043	1.7494642356778471	0.18594655604193805	0.9341979310611471	1.8266054820043396	0.2390858783749937	0.9447944807271854	1.8136086785790533	0.18799854053731935	1.1915800154655012	1.7863398193161435	-0.01065026566941079	0.6929229390717604	1.0206801597109478	-0.014278244482901825	0.9012439130988976	1.3937729249891853	0.007012078208561806	1.0558029887601788	1.7619443011087328	0.027423428518842004	0.8922327193230288	1.814980616008969	-0.025023755817302807	0.9125444638752901	1.805906422758938	0.011627353769621858	1.1039089227995647	1.789336170574188	0.06477425694003018	0.479330329921576	0.5140263148559548	0.05177760348550803	0.34134676463665603	0.3153279766420564	0.047843120566262734	0.3292119349976189	0.4336617901257699	0.20641848097717716	0.49373609178012684	0.5874830014036311	0.2286622072813875	0.5621613129619447	0.8310983583740839	0.1231712340714299	0.4691457853992134	1.026176050142358	0.03681669820483405	0.4927825739759249	1.0990600851362915	0.04615866110575349	0.5040206679084247	1.1193064573815983	0.06892025631389533	0.5533518548065437	1.1202496109933306	-0.07961868125301808	0.5108327945673937	0.594735567084006	-0.0893162706811088	0.5630635661695892	0.824953709616908	0.008353712072495573	0.46579637495660403	1.029231970258228	0.09976131653783751	0.46457842559307544	1.0830308912456676	0.09659190370324763	0.4821032218225385	1.1099656838387972	0.049320946104776685	0.48529633203653744	1.1171548819506536
